Coordinates
version=1
nRows=17
nColumns=40
inDegrees=yes

Units are S.I. units (second, meters, Newtons, ...)
Angles are in degrees.

endheader
time	pelvis_tilt	pelvis_list	pelvis_rotation	pelvis_tx	pelvis_ty	pelvis_tz	hip_flexion_r	hip_adduction_r	hip_rotation_r	knee_angle_r	knee_angle_r_beta	ankle_angle_r	subtalar_angle_r	mtp_angle_r	hip_flexion_l	hip_adduction_l	hip_rotation_l	knee_angle_l	knee_angle_l_beta	ankle_angle_l	subtalar_angle_l	mtp_angle_l	lumbar_extension	lumbar_bending	lumbar_rotation	arm_flex_r	arm_add_r	arm_rot_r	elbow_flex_r	pro_sup_r	wrist_flex_r	wrist_dev_r	arm_flex_l	arm_add_l	arm_rot_l	elbow_flex_l	pro_sup_l	wrist_flex_l	wrist_dev_l
     51.25664286	     -7.75347174	     -6.74693736	      4.42528648	      1.04610245	      0.91071620	      0.45711986	     -1.30195076	      5.81876911	    -18.01453915	      9.30732152	      9.30732152	     18.79591845	      7.74147073	     -0.98284589	     36.98631890	     -7.03752832	     -3.38962181	     16.19376807	     16.19376807	      4.39922892	     -7.19604840	     10.20316139	     -9.77991091	      5.78104318	      5.69521425	     52.69278609	    -12.59662066	      3.93182710	     90.34984600	     44.33455561	      0.00000000	      0.00000000	    -17.29279291	     -7.30674742	     -1.58994863	     32.71391308	     45.64292850	      0.00000000	      0.00000000
     51.26828571	     -7.76424777	     -6.67576341	      4.11604211	      1.04853599	      0.90905525	      0.45541844	     -1.79098227	      5.52926979	    -17.62349892	      9.88458891	      9.88458891	     19.64570914	      7.80941060	     -0.37525252	     36.55568436	     -6.86411427	     -3.20152553	     16.74465855	     16.74465855	      2.27250990	     -9.46452758	      7.90248984	     -9.50246076	      5.67163927	      5.94361960	     52.18805831	    -12.64880535	      3.78348833	     91.79549701	     44.34877917	      0.00000000	      0.00000000	    -17.33156145	     -7.35598809	     -1.03989579	     33.02368285	     45.58642611	      0.00000000	      0.00000000
     51.27992857	     -7.74692372	     -6.56747259	      3.83999867	      1.05107492	      0.90754517	      0.45383245	     -2.22560875	      5.19333361	    -17.24927271	     10.60720426	     10.60720426	     20.21390734	      7.57825550	     -0.42526593	     36.40191626	     -6.81294271	     -3.38886808	     17.97945663	     17.97945663	      1.26466730	    -10.56667989	      7.23442297	     -9.19373897	      5.43984262	      5.86013042	     51.62019073	    -12.37287245	      3.89698678	     92.30052492	     44.34885058	      0.00000000	      0.00000000	    -17.38386497	     -7.40727976	     -0.86151478	     32.91129837	     45.56979797	      0.00000000	      0.00000000
     51.29157143	     -7.72460909	     -6.46978592	      3.50900417	      1.05353173	      0.90624020	      0.45224277	     -2.50392686	      4.81364719	    -16.75770454	     11.60475210	     11.60475210	     20.67690503	      7.23489892	     -0.59836325	     36.29533590	     -6.80194542	     -3.42555995	     19.30207212	     19.30207212	      0.44337412	    -11.67795970	      6.63599023	     -8.94340231	      5.24312618	      5.84928205	     50.96237868	    -12.21659880	      3.98579503	     92.84725576	     44.34140824	      0.00000000	      0.00000000	    -17.23632941	     -7.38341522	     -0.76315707	     32.85489243	     45.56442237	      0.00000000	      0.00000000
     51.30321429	     -7.51352575	     -6.28027241	      3.20792773	      1.05614023	      0.90557671	      0.45070073	     -2.99042397	      4.35459663	    -16.32120296	     12.59070050	     12.59070050	     20.99369623	      6.90119125	     -0.84111357	     35.96172802	     -6.75401868	     -3.49551533	     20.62412864	     20.62412864	      0.05963309	    -12.41228929	      6.29076601	     -8.89362806	      4.87090844	      5.75138173	     50.12260483	    -12.05519882	      4.13709472	     93.05118241	     44.33259392	      0.00000000	      0.00000000	    -17.02742131	     -7.45788928	     -0.74030482	     32.80301426	     45.56650086	      0.00000000	      0.00000000
     51.31485714	     -7.50125208	     -6.13493984	      2.84023767	      1.05831244	      0.90485115	      0.44927806	     -2.73368631	      3.87015662	    -15.38066386	     14.46880047	     14.46880047	     21.02534860	      5.39313926	     -1.83476930	     35.84784561	     -6.75015079	     -3.45478703	     21.84895311	     21.84895311	     -0.60203895	    -13.38109063	      4.78213560	     -8.74024552	      4.54875104	      6.15901107	     48.69687216	    -12.49655932	      4.07562495	     94.58989235	     44.32553035	      0.00000000	      0.00000000	    -16.18665866	     -7.50400251	     -0.57531051	     32.14812712	     45.57270414	      0.00000000	      0.00000000
     51.32650000	     -7.41549528	     -5.94323646	      2.50089036	      1.06042136	      0.90468608	      0.44784471	     -2.40552045	      3.27102524	    -14.87560726	     16.61167458	     16.61167458	     20.93620784	      4.33210875	     -2.81545365	     35.68275969	     -6.76407363	     -3.61867904	     23.15978031	     23.15978031	     -0.39010253	    -13.68379827	      4.24756995	     -8.61750743	      4.16708703	      6.02347262	     47.43516595	    -12.34450151	      4.31595618	     94.81394303	     44.32660727	      0.00000000	      0.00000000	    -15.63897952	     -7.55095787	     -0.49433666	     31.83921827	     45.57694168	      0.00000000	      0.00000000
     51.33814286	     -7.26824118	     -5.79550003	      2.13813717	      1.06227418	      0.90505816	      0.44658306	     -1.94615829	      2.76678460	    -14.14347421	     18.93003165	     18.93003165	     19.83177193	      2.45729504	     -5.69713526	     35.43546157	     -6.86551116	     -3.84154531	     24.42867594	     24.42867594	      0.27947872	    -13.73260019	      3.99530793	     -8.68324187	      3.76277988	      6.19433662	     45.89337504	    -12.61952050	      4.45901921	     95.55708619	     44.36273254	      0.00000000	      0.00000000	    -14.50204487	     -7.60401381	     -0.38688284	     30.78513352	     45.60184860	      0.00000000	      0.00000000
     51.34978571	     -7.12380113	     -5.58972018	      1.77115872	      1.06384130	      0.90586990	      0.44527271	     -1.06816689	      2.05737811	    -13.80782606	     22.05689426	     22.05689426	     19.28004286	      1.01398969	     -6.54062410	     35.03159023	     -6.90403834	     -4.15523771	     25.39565301	     25.39565301	      1.00236765	    -13.69434781	      3.49615775	     -8.77318225	      3.28645820	      5.92231393	     44.50496292	    -12.41112293	      4.85641946	     95.41286530	     44.35863392	      0.00000000	      0.00000000	    -13.81953358	     -7.68748229	     -0.38596355	     30.75532393	     45.61535129	      0.00000000	      0.00000000
     51.36142857	     -7.03852271	     -5.39961368	      1.38934280	      1.06514087	      0.90699747	      0.44412325	      0.13908864	      1.39644882	    -13.37141112	     25.53023899	     25.53023899	     18.25163554	     -1.09165637	     -7.65687949	     34.55512668	     -6.99101728	     -4.65025581	     26.10482887	     26.10482887	      1.88031103	    -13.38754708	      3.04417186	     -8.78776081	      2.83235559	      5.71328242	     42.91415169	    -12.35540392	      5.37195555	     95.27527081	     44.35129370	      0.00000000	      0.00000000	    -12.92441060	     -7.79806443	     -0.39910564	     30.53390144	     45.63515066	      0.00000000	      0.00000000
     51.37307143	     -6.92439421	     -5.27259928	      0.98791214	      1.06617111	      0.90851424	      0.44314614	      1.36378526	      0.92407428	    -12.81504617	     28.74210253	     28.74210253	     15.34590185	     -4.66878729	    -12.62584910	     33.99214057	     -7.19693675	     -5.32257740	     26.73198448	     26.73198448	      3.22484818	    -12.60240017	      3.25222213	     -8.89719387	      2.42755442	      5.90161205	     40.92826430	    -12.79763141	      5.90786857	     95.65246981	     44.39323291	      0.00000000	      0.00000000	    -11.12744117	     -7.79775622	     -0.58799351	     28.77203771	     45.71238644	      0.00000000	      0.00000000
     51.38471429	     -6.77456666	     -4.98632238	      0.58424919	      1.06692971	      0.91033630	      0.44204338	      2.96439448	      0.03766850	    -12.87498055	     32.84648376	     32.84648376	     13.97227571	     -6.74711043	    -12.85233090	     33.14505591	     -7.17035855	     -6.03097613	     26.89944601	     26.89944601	      4.08340756	    -12.20896963	      2.72535552	     -9.08785065	      1.83197329	      5.56850491	     39.22068952	    -12.58538435	      6.44251689	     95.17815997	     44.39093537	      0.00000000	      0.00000000	    -10.18757306	     -7.99532582	     -0.62308105	     28.94967309	     45.73425673	      0.00000000	      0.00000000
     51.39635714	     -6.72821573	     -4.73990289	      0.17279769	      1.06734272	      0.91215679	      0.44105809	      4.84981312	     -0.76826076	    -12.89131423	     37.05435546	     37.05435546	     12.32841826	     -9.33184111	    -12.76605264	     32.29617422	     -7.18163927	     -6.83680915	     26.82247287	     26.82247287	      4.92475178	    -11.59425077	      2.19203707	     -9.18737041	      1.30373728	      5.26247199	     37.38797930	    -12.48235739	      7.08741818	     94.62338365	     44.38682947	      0.00000000	      0.00000000	     -9.09651045	     -8.21438765	     -0.65481902	     29.03704702	     45.75853359	      0.00000000	      0.00000000
     51.40800000	     -6.73347903	     -4.72282854	     -0.24565629	      1.06749058	      0.91406770	      0.44043964	      6.88644292	     -1.11509116	    -12.64047289	     41.13679090	     41.13679090	     10.44569743	    -12.85626658	    -11.80021101	     31.47089635	     -7.49000138	     -7.80217963	     26.65279375	     26.65279375	      5.74043731	    -10.48921664	      1.44365074	     -9.20217588	      1.02091461	      5.13444300	     35.49850298	    -12.74154389	      7.98045358	     93.94211382	     44.38933422	      0.00000000	      0.00000000	     -7.70441852	     -8.40902373	     -0.69804359	     28.62953592	     45.79244263	      0.00000000	      0.00000000
     51.41964286	     -6.70188597	     -4.43631681	     -0.62811047	      1.06744012	      0.91602507	      0.43945722	      8.94829810	     -2.04613390	    -12.98956681	     45.25868342	     45.25868342	      8.86183153	    -15.10624051	    -10.85910301	     30.44477536	     -7.37763262	     -8.66573295	     26.17285794	     26.17285794	      6.39542495	     -9.80225248	      1.00189692	     -9.31519362	      0.47957729	      4.76579559	     33.59854621	    -12.70211095	      8.62494812	     93.28689039	     44.38976658	      0.00000000	      0.00000000	     -6.45448701	     -8.68381857	     -0.73684803	     28.66672769	     45.82093884	      0.00000000	      0.00000000
     51.43128571	     -6.67023332	     -4.30914670	     -0.98414459	      1.06717261	      0.91789644	      0.43867560	     11.25487884	     -2.71352259	    -13.17753443	     49.71582501	     49.71582501	      9.62772615	    -16.16603794	     -3.15945766	     29.42579634	     -7.43966360	     -9.58549950	     25.63714249	     25.63714249	      6.72650285	     -8.97387220	     -0.23565263	     -9.42483385	      0.14967799	      4.66585460	     31.55894613	    -13.03482905	      9.38446806	     92.52648208	     44.44833638	      0.00000000	      0.00000000	     -4.51100313	     -8.81950543	     -0.92502036	     27.45314478	     45.88866949	      0.00000000	      0.00000000
     51.44292857	     -6.64239081	     -4.14036037	     -1.28938368	      1.06676302	      0.91967230	      0.43779310	     13.46336194	     -3.50308114	    -13.51512679	     53.67623874	     53.67623874	      9.69695709	    -17.37323841	      1.80675479	     28.39713227	     -7.38141172	    -10.39609282	     25.03927576	     25.03927576	      7.10420076	     -8.22112779	     -1.05014924	     -9.54208402	     -0.19420157	      4.33498680	     29.56241420	    -13.09181059	      9.84668395	     91.45175605	     44.50948706	      0.00000000	      0.00000000	     -3.12717622	     -9.13785927	     -1.06855370	     27.65166259	     45.92961352	      0.00000000	      0.00000000
